<svg width="131" height="35" viewBox="0 0 131 35" fill="none" xmlns="http://www.w3.org/2000/svg">
<g clip-path="url(#clip0_1256_32710)">
<path d="M22.9328 10.9415L15.1924 22.6524L7.98322 11.7114L15.7268 0.000488281L22.9328 10.9415Z" fill="#425CAA"/>
<path d="M15.7268 0.000488281L7.98316 11.7114L0.22998 0.000488281H15.7268Z" fill="#1698D4"/>
<path d="M15.1923 22.6524L7.32146 34.5446L0.239563 23.4223L7.9832 11.7114L15.1923 22.6524Z" fill="#253972"/>
<path d="M23.0218 34.5446H7.32141L15.1891 22.6523L23.0218 34.5446Z" fill="#1698D4"/>
<path d="M128.849 17.181V15.498H129.565C129.743 15.498 129.874 15.514 129.956 15.5426C130.039 15.5712 130.103 15.6253 130.154 15.7048C130.201 15.7812 130.227 15.8703 130.227 15.9689C130.227 16.0962 130.189 16.198 130.115 16.2807C130.042 16.3634 129.931 16.4143 129.781 16.4366C129.855 16.4779 129.915 16.5257 129.963 16.5766C130.01 16.6275 130.074 16.7197 130.157 16.8502L130.36 17.1778H129.953L129.708 16.812C129.622 16.6815 129.562 16.5988 129.53 16.5638C129.498 16.5288 129.463 16.5066 129.428 16.4938C129.393 16.4811 129.336 16.4747 129.256 16.4747H129.186V17.1778H128.846L128.849 17.181ZM129.19 16.2107H129.441C129.603 16.2107 129.705 16.2043 129.746 16.1884C129.788 16.1757 129.82 16.1502 129.842 16.1184C129.864 16.0834 129.877 16.0421 129.877 15.9912C129.877 15.9339 129.861 15.8894 129.832 15.8544C129.804 15.8194 129.759 15.7971 129.705 15.7876C129.676 15.7844 129.594 15.7812 129.457 15.7812H129.193V16.2075L129.19 16.2107Z" fill="#253972"/>
<path d="M131 16.4047C131 17.2255 130.335 17.8904 129.514 17.8904C128.693 17.8904 128.028 17.2255 128.028 16.4047C128.028 15.5839 128.693 14.9189 129.514 14.9189C130.335 14.9189 131 15.5839 131 16.4047ZM129.514 17.6613C130.208 17.6613 130.771 17.0982 130.771 16.4047C130.771 15.7111 130.208 15.148 129.514 15.148C128.821 15.148 128.258 15.7111 128.258 16.4047C128.258 17.0982 128.821 17.6613 129.514 17.6613Z" fill="#253972"/>
<path d="M39.5016 15.3592L33.686 25.7562H39.5653V28.9981H28.2361V28.4509L34.0327 18.0539H28.7643V14.812H39.5048V15.3592H39.5016Z" fill="#3954A4"/>
<path d="M50.8085 18.0571H45.5591V20.0646H50.3822V23.2874H45.5591V25.7816H50.9898V29.0044H41.9514V14.812H50.8085V18.0539V18.0571Z" fill="#3954A4"/>
<path d="M66.0921 28.4731V29.0012H62.039L59.6083 24.8272H57.7218V29.0012H54.0949V14.812H60.3178C65.8917 14.8311 66.9066 21.5408 63.3179 23.9746L66.0953 28.4731H66.0921ZM60.3146 18.0539C59.462 18.0348 58.5712 18.0539 57.7218 18.0539V21.5598H60.3146C62.2808 21.5598 62.3826 18.073 60.3146 18.0539Z" fill="#3954A4"/>
<path d="M67.406 21.9261C67.406 12.1145 81.9579 12.1145 81.9579 21.9261C81.9579 31.7376 67.406 31.7567 67.406 21.9261ZM78.2484 21.9261C78.2484 16.8198 71.1347 16.8198 71.1347 21.9261C71.1347 27.0323 78.2484 27.0736 78.2484 21.9261Z" fill="#3954A4"/>
<path d="M90.0452 29.0012H84.694V14.812H90.0452C99.2873 14.8534 99.2873 28.9599 90.0452 29.0012ZM88.3209 25.6989H90.0452C94.566 25.6989 94.566 18.1175 90.0452 18.1175H88.3209V25.6989Z" fill="#253972"/>
<path d="M98.8578 21.9261C98.8578 12.1145 113.41 12.1145 113.41 21.9261C113.41 31.7376 98.8578 31.7567 98.8578 21.9261ZM109.7 21.9261C109.7 16.8198 102.586 16.8198 102.586 21.9261C102.586 27.0323 109.7 27.0736 109.7 21.9261Z" fill="#253972"/>
<path d="M120.625 24.5409L118.032 29.0012H114.119V28.454L118.7 21.4803L114.606 15.3592V14.812H118.376L120.625 18.4993H120.727L122.999 14.812H126.749V15.3592L122.655 21.4803L127.255 28.454V29.0012H123.342L120.749 24.5409H120.628H120.625Z" fill="#253972"/>
</g>
<defs>
<clipPath id="clip0_1256_32710">
<rect width="131" height="35" fill="white"/>
</clipPath>
</defs>
</svg>
